<svg width="552" height="193" viewBox="0 0 552 193" fill="none" xmlns="http://www.w3.org/2000/svg">
<path d="M4.875 9.3125C8.625 9.625 11.9062 9.8125 14.7188 9.875C17.5938 9.9375 20.0312 9.96875 22.0312 9.96875C24.3438 9.96875 26.3438 9.90625 28.0312 9.78125C29.7812 9.59375 32.0625 9.34375 34.875 9.03125C37.25 8.71875 40.3125 8.3125 44.0625 7.8125C47.8125 7.25 52.375 6.53125 57.75 5.65625C57.0625 6.71875 56.4688 7.84375 55.9688 9.03125C55.5312 10.1562 55.1562 11.1875 54.8438 12.125C54.5312 13.25 54.25 14.3438 54 15.4062C53.8125 16.5938 53.5938 18.0625 53.3438 19.8125C53.0938 21.3125 52.7812 23.2188 52.4062 25.5312C52.0938 27.7812 51.6875 30.4688 51.1875 33.5938C49.3125 28.7188 47.4062 24.9688 45.4688 22.3438C43.5938 19.7188 41.8438 17.7812 40.2188 16.5312C38.3438 15.0938 36.5625 14.2812 34.875 14.0938C32.4375 14.0938 30.4375 14.5625 28.875 15.5C27.3125 16.4375 26.0312 17.6562 25.0312 19.1562C24.0938 20.5938 23.375 22.1875 22.875 23.9375C22.375 25.625 22.0312 27.2812 21.8438 28.9062C21.6562 30.4688 21.5312 31.875 21.4688 33.125C21.4062 34.3125 21.3438 35.125 21.2812 35.5625C23.4688 35.4375 25.3125 35.2812 26.8125 35.0938C28.3125 34.9062 29.5 34.7188 30.375 34.5312C31.4375 34.2812 32.2812 34.0312 32.9062 33.7812C33.8438 33.2812 34.7812 32.6875 35.7188 32C36.5312 31.375 37.375 30.625 38.25 29.75C39.1875 28.875 40 27.8125 40.6875 26.5625C40.3125 28.8125 39.9688 30.6875 39.6562 32.1875C39.4062 33.6875 39.1875 34.875 39 35.75C38.75 36.8125 38.5938 37.625 38.5312 38.1875C38.4062 38.75 38.25 39.5312 38.0625 40.5312C37.875 41.4062 37.6562 42.5312 37.4062 43.9062C37.1562 45.2812 36.875 47 36.5625 49.0625C35.8125 47.75 35.0312 46.6875 34.2188 45.875C33.4062 45 32.6562 44.3125 31.9688 43.8125C31.1562 43.25 30.375 42.8125 29.625 42.5C28.8125 42.25 27.9375 42 27 41.75C26.1875 41.5625 25.2188 41.375 24.0938 41.1875C23.0312 40.9375 21.875 40.7188 20.625 40.5312C20.75 43.9062 20.9375 46.8125 21.1875 49.25C21.4375 51.625 21.6562 53.625 21.8438 55.25C22.0938 57.125 22.3438 58.6875 22.5938 59.9375C22.9062 61.1875 23.4062 62.5312 24.0938 63.9688C24.6562 65.2188 25.4375 66.6562 26.4375 68.2812C27.5 69.8438 28.8438 71.5312 30.4688 73.3438C29.2188 73.0312 27.9062 72.8125 26.5312 72.6875C25.1562 72.5625 23.9375 72.4688 22.875 72.4062C21.5625 72.3438 20.3125 72.3438 19.125 72.4062C17.875 72.4688 16.5 72.5938 15 72.7812C13.75 72.9062 12.3125 73.0938 10.6875 73.3438C9.0625 73.5938 7.34375 73.875 5.53125 74.1875C6.59375 73.125 7.46875 72.0625 8.15625 71C8.84375 69.9375 9.34375 69 9.65625 68.1875C10.0312 67.25 10.2812 66.3438 10.4062 65.4688C10.4688 64.7188 10.5 63.0938 10.5 60.5938C10.5 58.0312 10.4688 55.0625 10.4062 51.6875C10.3438 48.25 10.25 44.625 10.125 40.8125C10 37 9.875 33.4375 9.75 30.125C9.625 26.75 9.46875 23.875 9.28125 21.5C9.15625 19.125 9 17.6875 8.8125 17.1875C8.5625 16.5625 8.28125 15.8438 7.96875 15.0312C7.46875 13.7188 6.4375 11.8125 4.875 9.3125ZM53.9062 32.0938L71.1562 32.2812C70.1562 36.0938 69.4062 39.3438 68.9062 42.0312C68.4688 44.7188 68.1875 46.9688 68.0625 48.7812C67.8125 50.8438 67.75 52.5938 67.875 54.0312C68.0625 55.3438 68.375 56.75 68.8125 58.25C69.1875 59.5 69.75 60.9375 70.5 62.5625C71.25 64.1875 72.25 65.8125 73.5 67.4375C72.75 67.1875 71.9375 67 71.0625 66.875C70.1875 66.75 69.375 66.6562 68.625 66.5938C67.75 66.5312 66.875 66.5312 66 66.5938C65.125 66.6562 64.1562 66.75 63.0938 66.875C62.2188 67 61.1562 67.1562 59.9062 67.3438C58.6562 67.5312 57.3438 67.7812 55.9688 68.0938C56.9062 65.2812 57.625 62.8438 58.125 60.7812C58.6875 58.7188 59.0938 57 59.3438 55.625C59.5938 54 59.75 52.6875 59.8125 51.6875C59.8125 50.4375 59.8125 49.0312 59.8125 47.4688C59.8125 45.8438 59.8125 44.2812 59.8125 42.7812C59.8125 41.2812 59.7812 39.9688 59.7188 38.8438C59.6562 37.6562 59.5312 36.9062 59.3438 36.5938L58.4062 35.6562C58.0312 35.3438 57.4688 34.9062 56.7188 34.3438C56.0312 33.7188 55.0938 32.9688 53.9062 32.0938ZM60.5625 17.6562C61.875 16.9688 63.1875 16.7812 64.5 17.0938C65.875 17.4062 66.9375 18 67.6875 18.875C68.4375 19.75 68.6875 20.7812 68.4375 21.9688C68.25 23.1562 67.25 24.3125 65.4375 25.4375C63.625 26.5 62.0312 26.875 60.6562 26.5625C59.2812 26.25 58.3125 25.5938 57.75 24.5938C57.1875 23.5938 57.0938 22.4375 57.4688 21.125C57.8438 19.75 58.875 18.5938 60.5625 17.6562ZM76.875 8.1875C78.3125 8.5625 79.625 8.84375 80.8125 9.03125C82.0625 9.15625 83.125 9.25 84 9.3125C85.0625 9.375 86.0312 9.40625 86.9062 9.40625C87.7812 9.40625 88.875 9.34375 90.1875 9.21875C92.5 9.03125 95.7812 8.5625 100.031 7.8125C99.3438 8.3125 98.6875 8.8125 98.0625 9.3125C97.5 9.75 97 10.1875 96.5625 10.625L95.1562 12.0312C94.3438 13.1562 93.5312 15.0625 92.7188 17.75C92.0312 20.0625 91.2812 23.3125 90.4688 27.5C89.7188 31.6875 89.0312 37.25 88.4062 44.1875C91.4688 41.1875 94.3438 38.9375 97.0312 37.4375C99.7812 35.875 102.188 34.75 104.25 34.0625C106.688 33.3125 108.906 32.9062 110.906 32.8438C113.469 33.0312 115.688 33.5625 117.562 34.4375C119.5 35.25 121.125 36.25 122.438 37.4375C123.812 38.5625 124.906 39.75 125.719 41C126.594 42.1875 127.25 43.25 127.688 44.1875C127.938 44.8125 128.125 45.9688 128.25 47.6562C128.438 49.2812 128.469 51.1562 128.344 53.2812C128.219 55.4062 127.875 57.6562 127.312 60.0312C126.812 62.3438 125.969 64.5 124.781 66.5C123.656 68.4375 122.156 70.0625 120.281 71.375C118.469 72.6875 116.188 73.4062 113.438 73.5312C110.25 73.5312 107.156 73.1562 104.156 72.4062C101.594 71.7812 98.875 70.6875 96 69.125C93.1875 67.5 90.7812 65.1875 88.7812 62.1875C88.7812 62.9375 88.7812 63.6875 88.7812 64.4375C88.7812 65.125 88.8125 65.7188 88.875 66.2188C88.9375 66.9062 89 67.5 89.0625 68C89.125 68.5625 89.2812 69.1562 89.5312 69.7812C89.7188 70.2812 90 70.9062 90.375 71.6562C90.8125 72.3438 91.375 73.0312 92.0625 73.7188C91.375 73.6562 90.6875 73.625 90 73.625C89.3125 73.5625 88.625 73.5625 87.9375 73.625C87.1875 73.6875 86.4375 73.75 85.6875 73.8125C84.9375 73.875 84.1562 73.9688 83.3438 74.0938C82.6562 74.2188 81.8438 74.375 80.9062 74.5625C79.9688 74.75 79 74.9688 78 75.2188C78.1875 74.6562 78.3438 73.8438 78.4688 72.7812C78.5938 71.6562 78.7188 70.4375 78.8438 69.125C79.0312 67.75 79.1562 66.3125 79.2188 64.8125C79.3438 63.3125 79.4688 61.8125 79.5938 60.3125C79.8438 56.875 80.0625 53.125 80.25 49.0625C80.4375 42.75 80.4688 36.875 80.3438 31.4375C80.2812 29.125 80.1562 26.7812 79.9688 24.4062C79.8438 22.0312 79.6562 19.8125 79.4062 17.75C79.1562 15.625 78.8125 13.75 78.375 12.125C78 10.4375 77.5 9.125 76.875 8.1875ZM89.0625 53.8438C90.0625 55.6562 91.125 57.2188 92.25 58.5312C93.375 59.7812 94.5 60.8438 95.625 61.7188C96.75 62.5938 97.8438 63.2812 98.9062 63.7812C100.031 64.2812 101.094 64.6562 102.094 64.9062C104.406 65.5312 106.688 65.5938 108.938 65.0938C111.188 64.4688 112.938 63.2188 114.188 61.3438C115.438 59.4688 116.406 57.3438 117.094 54.9688C117.406 53.8438 117.594 52.4062 117.656 50.6562C117.781 48.9062 117.594 47.2188 117.094 45.5938C116.656 43.9062 115.844 42.4375 114.656 41.1875C113.469 39.875 111.75 39.0938 109.5 38.8438C107.938 38.8438 106.125 39.2812 104.062 40.1562C102.25 40.9062 100.094 42.1562 97.5938 43.9062C95.0938 45.5938 92.25 48.125 89.0625 51.5V53.8438ZM131.812 29.0938C133 29.1562 134.062 29.1875 135 29.1875C136 29.125 136.844 29.0625 137.531 29C138.344 28.9375 139.062 28.875 139.688 28.8125C140.625 28.6875 141.594 28.5312 142.594 28.3438C143.469 28.2188 144.375 28.0625 145.312 27.875C146.312 27.625 147.281 27.3438 148.219 27.0312C147.844 27.9688 147.531 28.7812 147.281 29.4688C147.031 30.1562 146.844 30.75 146.719 31.25C146.531 31.8125 146.438 32.2812 146.438 32.6562C146.375 33.0938 146.344 33.625 146.344 34.25C146.281 35.3125 146.281 37.0312 146.344 39.4062C149.594 36.5938 152.312 34.4062 154.5 32.8438C156.75 31.2812 158.531 30.0625 159.844 29.1875C161.406 28.1875 162.625 27.5312 163.5 27.2188C165.812 26.8438 167.844 27.375 169.594 28.8125C170.344 29.4375 171.062 30.2812 171.75 31.3438C172.438 32.3438 173.031 33.6875 173.531 35.375C174.031 37.0625 174.406 39.0938 174.656 41.4688C174.906 43.7812 174.938 46.5625 174.75 49.8125C173.438 49.9375 172.25 50.0625 171.188 50.1875C170.188 50.3125 169.344 50.4062 168.656 50.4688C167.844 50.5938 167.094 50.6562 166.406 50.6562L163.875 50.9375C163 51.0625 161.906 51.1875 160.594 51.3125C159.344 51.375 157.812 51.5 156 51.6875C158.625 49.5625 160.312 47.7188 161.062 46.1562C161.875 44.5312 162.219 43.1875 162.094 42.125C161.969 40.9375 161.406 39.9062 160.406 39.0312C159.219 38.3438 157.938 38.0938 156.562 38.2812C155.375 38.4062 154 38.9375 152.438 39.875C150.875 40.8125 149.219 42.5625 147.469 45.125C147.594 49.125 147.719 52.4375 147.844 55.0625C148.031 57.6875 148.188 59.8125 148.312 61.4375C148.5 63.3125 148.656 64.7812 148.781 65.8438C148.969 66.7812 149.344 67.7812 149.906 68.8438C150.344 69.7188 150.969 70.6875 151.781 71.75C152.594 72.8125 153.656 73.875 154.969 74.9375C152.219 74.8125 149.969 74.8125 148.219 74.9375C147.156 75 146.219 75.0625 145.406 75.125C144.531 75.25 143.594 75.375 142.594 75.5C141.719 75.625 140.688 75.75 139.5 75.875C138.375 76.0625 137.125 76.25 135.75 76.4375C136.25 75.75 136.656 74.9375 136.969 74C137.281 73.125 137.531 72.2812 137.719 71.4688C137.969 70.5312 138.156 69.5625 138.281 68.5625C138.344 67.6875 138.375 66.375 138.375 64.625C138.438 62.875 138.406 60.9062 138.281 58.7188C138.219 56.4688 138.125 54.1562 138 51.7812C137.875 49.3438 137.719 47.0625 137.531 44.9375C137.344 42.8125 137.125 40.9688 136.875 39.4062C136.688 37.7812 136.469 36.6562 136.219 36.0312C135.906 35.2812 135.531 34.5312 135.094 33.7812C134.719 33.0938 134.25 32.375 133.688 31.625C133.125 30.8125 132.5 29.9688 131.812 29.0938ZM203.062 58.9062C204.812 58.9062 206.438 58.7188 207.938 58.3438C209.188 58.0312 210.375 57.5312 211.5 56.8438C212.688 56.0938 213.469 55 213.844 53.5625C215.094 53.8125 216.156 54.0312 217.031 54.2188C217.906 54.3438 218.656 54.4688 219.281 54.5938C219.969 54.7812 220.562 54.9062 221.062 54.9688C221.562 55.0938 222.156 55.2188 222.844 55.3438C223.469 55.4688 224.219 55.625 225.094 55.8125C226.031 55.9375 227.125 56.125 228.375 56.375C227.438 56.25 226.469 56.3438 225.469 56.6562C224.531 56.9688 223.625 57.3125 222.75 57.6875C221.75 58.125 220.812 58.6562 219.938 59.2812C219.375 59.6562 218.719 60.2188 217.969 60.9688C217.281 61.7188 216.281 62.4375 214.969 63.125C213.656 63.8125 211.906 64.4062 209.719 64.9062C207.594 65.3438 204.844 65.5 201.469 65.375C197.406 65.25 194 64.5312 191.25 63.2188C188.5 61.8438 186.281 60.1875 184.594 58.25C182.906 56.25 181.688 54.0938 180.938 51.7812C180.188 49.4688 179.781 47.3125 179.719 45.3125C179.656 43.3125 180.25 41.2188 181.5 39.0312C182.75 36.8438 184.5 34.8438 186.75 33.0312C189.062 31.2188 191.844 29.75 195.094 28.625C198.344 27.4375 201.906 26.8438 205.781 26.8438C208.031 26.8438 210.094 27.125 211.969 27.6875C213.906 28.1875 215.656 28.875 217.219 29.75C218.844 30.625 220.25 31.625 221.438 32.75C222.625 33.8125 223.625 34.9062 224.438 36.0312C225.25 37.2188 225.938 38.4688 226.5 39.7812C227 40.9062 227.406 42.1875 227.719 43.625C228.031 45.0625 228.125 46.5312 228 48.0312C223.25 48.1562 219.406 48.25 216.469 48.3125C213.594 48.375 211.344 48.4062 209.719 48.4062H205.5H202.312C201.188 48.4062 199.719 48.4375 197.906 48.5C196.094 48.5625 193.875 48.6562 191.25 48.7812C191.562 51.2812 192.344 53.2188 193.594 54.5938C194.906 55.9062 196.281 56.9062 197.719 57.5938C199.344 58.3438 201.125 58.7812 203.062 58.9062ZM194.625 42.0312C196.625 42.1562 198.281 42.25 199.594 42.3125C200.969 42.375 202.094 42.4375 202.969 42.5C203.906 42.5625 204.656 42.5938 205.219 42.5938H207.562C209.125 42.5938 212.031 42.5 216.281 42.3125C216.094 39.5625 215.5 37.4688 214.5 36.0312C213.562 34.5938 212.562 33.5312 211.5 32.8438C210.25 32.0938 208.875 31.6562 207.375 31.5312C203.312 31.5938 200.281 32.4375 198.281 34.0625C196.344 35.6875 195.125 38.3438 194.625 42.0312ZM297.375 77.375C298.625 76.5 299.625 75.3438 300.375 73.9062C301.125 72.4688 301.688 71.0625 302.062 69.6875C302.5 68.0625 302.781 66.375 302.906 64.625C302.906 63.5625 302.844 61.875 302.719 59.5625C302.594 57.625 302.406 54.9688 302.156 51.5938C301.906 48.1562 301.531 43.7188 301.031 38.2812C300.344 38.3438 299.75 38.4062 299.25 38.4688C298.75 38.4688 298.344 38.4688 298.031 38.4688H297C296.688 38.4688 296.312 38.5 295.875 38.5625C295.5 38.625 295 38.7188 294.375 38.8438C293.812 38.9688 293.125 39.125 292.312 39.3125C292.438 38.8125 292.5 38.3125 292.5 37.8125C292.562 37.25 292.625 36.75 292.688 36.3125C292.75 35.8125 292.781 35.3438 292.781 34.9062V33.5C292.781 33.0625 292.781 32.5938 292.781 32.0938C292.844 31.5938 292.906 31.0938 292.969 30.5938L300.375 30.7812C300.062 28.0938 299.938 25.6875 300 23.5625C300.062 21.375 300.156 19.5 300.281 17.9375C300.469 16.125 300.719 14.5312 301.031 13.1562C301.469 11.4688 302.062 9.90625 302.812 8.46875C303.562 7.03125 304.594 5.8125 305.906 4.8125C307.219 3.8125 308.844 3.0625 310.781 2.5625C312.719 2 315.062 1.71875 317.812 1.71875C320.938 1.78125 323.406 2.1875 325.219 2.9375C327.031 3.625 328.375 4.53125 329.25 5.65625C330.125 6.71875 330.625 7.9375 330.75 9.3125C330.875 10.6875 330.844 12.0312 330.656 13.3438C330.531 14.5938 330.312 15.75 330 16.8125C329.75 17.875 329.656 18.6562 329.719 19.1562C329.781 19.5312 329.938 20.0312 330.188 20.6562C330.375 21.1562 330.656 21.7812 331.031 22.5312C331.469 23.2812 332.094 24.125 332.906 25.0625C331.906 24.9375 330.906 24.8438 329.906 24.7812C328.906 24.6562 327.969 24.5625 327.094 24.5C326.094 24.4375 325.125 24.4062 324.188 24.4062C323.25 24.4688 322.281 24.5312 321.281 24.5938C320.406 24.7188 319.469 24.8438 318.469 24.9688C317.469 25.0312 316.531 25.2188 315.656 25.5312C316.906 24.6562 317.875 23.75 318.562 22.8125C319.25 21.875 319.781 21.0312 320.156 20.2812C320.594 19.4062 320.875 18.5312 321 17.6562C321.062 16.5938 321 15.4062 320.812 14.0938C320.688 12.7188 320.406 11.4688 319.969 10.3438C319.531 9.21875 319 8.3125 318.375 7.625C317.75 6.875 317 6.59375 316.125 6.78125C314.812 7.28125 313.594 8.5 312.469 10.4375C311.531 12.0625 310.625 14.5312 309.75 17.8438C308.875 21.0938 308.312 25.625 308.062 31.4375C309.25 31.5625 310.344 31.6562 311.344 31.7188C312.406 31.7188 313.344 31.75 314.156 31.8125C315.094 31.875 315.969 31.9062 316.781 31.9062C317.594 31.9062 318.5 31.875 319.5 31.8125C320.375 31.75 321.406 31.7188 322.594 31.7188C323.781 31.6562 325.094 31.5625 326.531 31.4375L326.344 36.3125C325.219 36.4375 324.125 36.5312 323.062 36.5938C322 36.6562 321.062 36.7188 320.25 36.7812C319.312 36.8438 318.438 36.9062 317.625 36.9688C316.75 37.0312 315.844 37.0938 314.906 37.1562C314.094 37.2188 313.156 37.3125 312.094 37.4375C311.094 37.5625 310.031 37.6875 308.906 37.8125C309.781 44.875 310.531 50.5938 311.156 54.9688C311.844 59.2812 312.438 62.625 312.938 65C313.438 67.8125 313.875 69.8125 314.25 71C314.625 72 315.062 72.875 315.562 73.625C316 74.3125 316.531 74.9688 317.156 75.5938C317.781 76.2188 318.5 76.625 319.312 76.8125C317.312 76.5 315.594 76.25 314.156 76.0625C312.719 75.9375 311.5 75.8438 310.5 75.7812C309.375 75.7188 308.406 75.6875 307.594 75.6875C306.844 75.75 305.938 75.8438 304.875 75.9688C303.062 76.1562 300.562 76.625 297.375 77.375ZM325.219 29.0938C326.406 29.1562 327.469 29.1875 328.406 29.1875C329.406 29.125 330.25 29.0625 330.938 29C331.75 28.9375 332.469 28.875 333.094 28.8125C334.031 28.6875 335 28.5312 336 28.3438C336.875 28.2188 337.781 28.0625 338.719 27.875C339.719 27.625 340.688 27.3438 341.625 27.0312C341.25 27.9688 340.938 28.7812 340.688 29.4688C340.438 30.1562 340.25 30.75 340.125 31.25C339.938 31.8125 339.844 32.2812 339.844 32.6562C339.781 33.0938 339.75 33.625 339.75 34.25C339.688 35.3125 339.688 37.0312 339.75 39.4062C343 36.5938 345.719 34.4062 347.906 32.8438C350.156 31.2812 351.938 30.0625 353.25 29.1875C354.812 28.1875 356.031 27.5312 356.906 27.2188C359.219 26.8438 361.25 27.375 363 28.8125C363.75 29.4375 364.469 30.2812 365.156 31.3438C365.844 32.3438 366.438 33.6875 366.938 35.375C367.438 37.0625 367.812 39.0938 368.062 41.4688C368.312 43.7812 368.344 46.5625 368.156 49.8125C366.844 49.9375 365.656 50.0625 364.594 50.1875C363.594 50.3125 362.75 50.4062 362.062 50.4688C361.25 50.5938 360.5 50.6562 359.812 50.6562L357.281 50.9375C356.406 51.0625 355.312 51.1875 354 51.3125C352.75 51.375 351.219 51.5 349.406 51.6875C352.031 49.5625 353.719 47.7188 354.469 46.1562C355.281 44.5312 355.625 43.1875 355.5 42.125C355.375 40.9375 354.812 39.9062 353.812 39.0312C352.625 38.3438 351.344 38.0938 349.969 38.2812C348.781 38.4062 347.406 38.9375 345.844 39.875C344.281 40.8125 342.625 42.5625 340.875 45.125C341 49.125 341.125 52.4375 341.25 55.0625C341.438 57.6875 341.594 59.8125 341.719 61.4375C341.906 63.3125 342.062 64.7812 342.188 65.8438C342.375 66.7812 342.75 67.7812 343.312 68.8438C343.75 69.7188 344.375 70.6875 345.188 71.75C346 72.8125 347.062 73.875 348.375 74.9375C345.625 74.8125 343.375 74.8125 341.625 74.9375C340.562 75 339.625 75.0625 338.812 75.125C337.938 75.25 337 75.375 336 75.5C335.125 75.625 334.094 75.75 332.906 75.875C331.781 76.0625 330.531 76.25 329.156 76.4375C329.656 75.75 330.062 74.9375 330.375 74C330.688 73.125 330.938 72.2812 331.125 71.4688C331.375 70.5312 331.562 69.5625 331.688 68.5625C331.75 67.6875 331.781 66.375 331.781 64.625C331.844 62.875 331.812 60.9062 331.688 58.7188C331.625 56.4688 331.531 54.1562 331.406 51.7812C331.281 49.3438 331.125 47.0625 330.938 44.9375C330.75 42.8125 330.531 40.9688 330.281 39.4062C330.094 37.7812 329.875 36.6562 329.625 36.0312C329.312 35.2812 328.938 34.5312 328.5 33.7812C328.125 33.0938 327.656 32.375 327.094 31.625C326.531 30.8125 325.906 29.9688 325.219 29.0938ZM372.094 32.0938L389.344 32.2812C388.344 36.0938 387.594 39.3438 387.094 42.0312C386.656 44.7188 386.375 46.9688 386.25 48.7812C386 50.8438 385.938 52.5938 386.062 54.0312C386.25 55.3438 386.562 56.75 387 58.25C387.375 59.5 387.938 60.9375 388.688 62.5625C389.438 64.1875 390.438 65.8125 391.688 67.4375C390.938 67.1875 390.125 67 389.25 66.875C388.375 66.75 387.562 66.6562 386.812 66.5938C385.938 66.5312 385.062 66.5312 384.188 66.5938C383.312 66.6562 382.344 66.75 381.281 66.875C380.406 67 379.344 67.1562 378.094 67.3438C376.844 67.5312 375.531 67.7812 374.156 68.0938C375.094 65.2812 375.812 62.8438 376.312 60.7812C376.875 58.7188 377.281 57 377.531 55.625C377.781 54 377.938 52.6875 378 51.6875C378 50.4375 378 49.0312 378 47.4688C378 45.8438 378 44.2812 378 42.7812C378 41.2812 377.969 39.9688 377.906 38.8438C377.844 37.6562 377.719 36.9062 377.531 36.5938L376.594 35.6562C376.219 35.3438 375.656 34.9062 374.906 34.3438C374.219 33.7188 373.281 32.9688 372.094 32.0938ZM378.75 17.6562C380.062 16.9688 381.375 16.7812 382.688 17.0938C384.062 17.4062 385.125 18 385.875 18.875C386.625 19.75 386.875 20.7812 386.625 21.9688C386.438 23.1562 385.438 24.3125 383.625 25.4375C381.812 26.5 380.219 26.875 378.844 26.5625C377.469 26.25 376.5 25.5938 375.938 24.5938C375.375 23.5938 375.281 22.4375 375.656 21.125C376.031 19.75 377.062 18.5938 378.75 17.6562ZM441.094 2.1875C442.281 2.25 443.562 2.28125 444.938 2.28125C446.125 2.28125 447.469 2.3125 448.969 2.375C450.531 2.375 452.156 2.3125 453.844 2.1875C452.344 2.875 451.031 3.875 449.906 5.1875C448.781 6.5 447.875 7.8125 447.188 9.125C446.312 10.6875 445.594 12.3125 445.031 14C444.719 15 444.469 16.7812 444.281 19.3438C444.094 21.8438 443.938 24.7812 443.812 28.1562C443.75 31.5312 443.719 35.0938 443.719 38.8438C443.719 42.5938 443.75 46.1875 443.812 49.625C443.875 53 443.969 56 444.094 58.625C444.219 61.25 444.375 63.0938 444.562 64.1562C444.812 65.4062 445.125 66.5938 445.5 67.7188C445.812 68.7188 446.219 69.75 446.719 70.8125C447.219 71.8125 447.844 72.625 448.594 73.25L439.031 77.5625C438.531 76.875 438.125 76.1562 437.812 75.4062C437.5 74.7188 437.25 74.0938 437.062 73.5312C436.812 72.8438 436.656 72.2188 436.594 71.6562C436.469 70.9062 436.344 70.0938 436.219 69.2188C436.094 68.2812 435.938 67.4062 435.75 66.5938C435.625 65.7188 435.531 65 435.469 64.4375C435.406 63.875 435.406 63.5312 435.469 63.4062C435.531 63.2812 435.156 63.8438 434.344 65.0938C433.531 66.2812 432.312 67.6875 430.688 69.3125C429.125 70.875 427.188 72.4062 424.875 73.9062C422.562 75.3438 419.969 76.25 417.094 76.625C414.156 77 411.438 76.4375 408.938 74.9375C406.5 73.4375 404.406 71.3438 402.656 68.6562C400.906 65.9062 399.562 62.75 398.625 59.1875C397.75 55.5625 397.406 51.875 397.594 48.125C397.719 45.625 398.281 43.4062 399.281 41.4688C400.281 39.4688 401.531 37.75 403.031 36.3125C404.594 34.8125 406.281 33.5625 408.094 32.5625C409.969 31.5 411.781 30.625 413.531 29.9375C415.344 29.25 417.031 28.75 418.594 28.4375C420.156 28.125 421.406 27.9062 422.344 27.7812C423.469 27.7188 424.75 27.9062 426.188 28.3438C427.438 28.7188 428.875 29.3438 430.5 30.2188C432.188 31.0938 434.062 32.4062 436.125 34.1562C435.75 27.9062 435.406 22.9062 435.094 19.1562C434.781 15.3438 434.469 12.4375 434.156 10.4375C433.844 8.0625 433.562 6.4375 433.312 5.5625C433 4.9375 432.594 4.3125 432.094 3.6875C431.656 3.1875 431.094 2.6875 430.406 2.1875C429.781 1.625 429.031 1.1875 428.156 0.875C429.781 1.1875 431.344 1.40625 432.844 1.53125C434.344 1.65625 435.719 1.78125 436.969 1.90625C438.406 2.03125 439.781 2.125 441.094 2.1875ZM417.562 37.1562C416.375 37.5938 415.406 38.3438 414.656 39.4062C413.969 40.4688 413.406 41.75 412.969 43.25C412.531 44.6875 412.219 46.25 412.031 47.9375C411.906 49.5625 411.812 51.1562 411.75 52.7188C411.75 54.2188 411.75 55.5938 411.75 56.8438C411.75 58.0938 411.75 59.0312 411.75 59.6562C411.75 60.0312 411.812 60.7188 411.938 61.7188C412.125 62.6562 412.5 63.6562 413.062 64.7188C413.625 65.7188 414.406 66.625 415.406 67.4375C416.469 68.25 417.875 68.6562 419.625 68.6562C421.062 68.5312 422.594 68.0312 424.219 67.1562C425.656 66.4062 427.281 65.2188 429.094 63.5938C430.969 61.9062 432.969 59.5 435.094 56.375C434.969 54.375 434.875 52.7188 434.812 51.4062C434.812 50.0938 434.781 49.0312 434.719 48.2188C434.656 47.2812 434.625 46.5312 434.625 45.9688V44.5625C434.625 44.1875 434.625 43.7812 434.625 43.3438C434.625 42.9062 434.656 42.5 434.719 42.125C432.969 40.875 431.406 39.8125 430.031 38.9375C428.719 38 427.406 37.3125 426.094 36.875C424.844 36.375 423.531 36.1562 422.156 36.2188C420.844 36.2188 419.312 36.5312 417.562 37.1562ZM458.906 36.0312C459.219 35.6562 459.406 34.9688 459.469 33.9688C459.594 32.9062 459.844 31.7188 460.219 30.4062C460.656 29.0938 461.375 27.7188 462.375 26.2812C463.375 24.8438 465 23.5 467.25 22.25C469.438 21 471.562 20.25 473.625 20C475.688 19.75 477.656 19.8438 479.531 20.2812C481.406 20.7188 483.156 21.4062 484.781 22.3438C486.469 23.2812 488 24.3125 489.375 25.4375C490.312 26.1875 491.062 27.2812 491.625 28.7188C492.188 30.0938 492.625 31.6562 492.938 33.4062C493.25 35.1562 493.469 37 493.594 38.9375C493.781 40.8125 493.906 42.6562 493.969 44.4688C494.031 46.2188 494.062 47.8438 494.062 49.3438C494.125 50.7812 494.25 51.9688 494.438 52.9062C494.688 54.2812 495.125 55.4688 495.75 56.4688C496.375 57.4062 497.062 58.2188 497.812 58.9062C498.562 59.5312 499.312 60.0312 500.062 60.4062C500.812 60.7812 501.469 61.0625 502.031 61.25C502.406 61.4375 502.75 61.5625 503.062 61.625C503.688 61.875 504.125 61.875 504.375 61.625C504 62.5 503.656 63.25 503.344 63.875C503.031 64.5 502.781 65.0312 502.594 65.4688C502.344 65.9688 502.125 66.375 501.938 66.6875C501.75 67.0625 501.531 67.4062 501.281 67.7188C501.094 68.0312 500.844 68.375 500.531 68.75C500.219 69.125 499.906 69.5312 499.594 69.9688C498.781 69.6562 498 69.2812 497.25 68.8438C496.562 68.4062 495.938 68 495.375 67.625C494.688 67.1875 494.062 66.75 493.5 66.3125C492.938 65.875 492.406 65.375 491.906 64.8125C491.469 64.3125 491 63.7812 490.5 63.2188C490.062 62.6562 489.688 62.0312 489.375 61.3438C489 62.1562 488.094 63.3125 486.656 64.8125C485.281 66.3125 483.469 67.6875 481.219 68.9375C478.969 70.125 476.344 70.9688 473.344 71.4688C470.406 71.9688 467.156 71.625 463.594 70.4375C462.031 69.9375 460.562 69.2188 459.188 68.2812C457.812 67.2812 456.625 66.0938 455.625 64.7188C454.688 63.3438 454 61.7812 453.562 60.0312C453.188 58.2188 453.219 56.2188 453.656 54.0312C454.094 51.8438 454.875 50 456 48.5C457.125 47 458.469 45.7812 460.031 44.8438C461.594 43.9062 463.344 43.1875 465.281 42.6875C467.219 42.1875 469.219 41.8438 471.281 41.6562C472.906 41.5938 474.531 41.6875 476.156 41.9375C477.531 42.1875 478.969 42.6562 480.469 43.3438C481.969 43.9688 483.25 44.9375 484.312 46.25C484.25 42.9375 484.125 40.3125 483.938 38.375C483.812 36.375 483.688 34.8438 483.562 33.7812C483.312 32.5312 483.094 31.6562 482.906 31.1562C482.594 30.7188 482.25 30.2188 481.875 29.6562C481.562 29.0938 481.156 28.5938 480.656 28.1562C480.156 27.6562 479.531 27.25 478.781 26.9375C478.031 26.625 477.156 26.5 476.156 26.5625C475.094 26.625 474.25 26.9062 473.625 27.4062C473 27.9062 472.5 28.5 472.125 29.1875C471.812 29.8125 471.625 30.5 471.562 31.25C471.5 32 471.531 32.6562 471.656 33.2188C471.781 33.5938 471.969 34 472.219 34.4375C472.469 34.8125 472.812 35.2188 473.25 35.6562C473.688 36.0938 474.281 36.4688 475.031 36.7812C473.594 36.9688 472.312 37.125 471.188 37.25C470.062 37.3125 469.094 37.4062 468.281 37.5312C467.344 37.6562 466.531 37.75 465.844 37.8125C465.156 37.875 464.344 38 463.406 38.1875C462.594 38.3125 461.594 38.4688 460.406 38.6562C459.219 38.8438 457.844 39.0938 456.281 39.4062C456.656 38.9688 457 38.5625 457.312 38.1875C457.625 37.75 457.906 37.375 458.156 37.0625C458.406 36.6875 458.656 36.3438 458.906 36.0312ZM472.969 47.1875C471.844 47.25 470.719 47.5312 469.594 48.0312C468.469 48.4688 467.469 49.125 466.594 50C465.719 50.8125 464.969 51.7812 464.344 52.9062C463.781 53.9688 463.5 55.1562 463.5 56.4688C463.5 57.7812 463.812 58.9375 464.438 59.9375C465.125 60.875 466 61.6562 467.062 62.2812C468.188 62.9062 469.375 63.2812 470.625 63.4062C471.938 63.5312 473.219 63.4062 474.469 63.0312C475.656 62.5938 476.781 61.9062 477.844 60.9688C478.906 59.9688 479.812 58.9062 480.562 57.7812C481.312 56.5938 481.844 55.4375 482.156 54.3125C482.469 53.125 482.5 52.1562 482.25 51.4062C481.75 49.7812 480.625 48.6562 478.875 48.0312C477.125 47.3438 475.156 47.0625 472.969 47.1875ZM498.656 26.0938C499.906 26.2812 501.031 26.4375 502.031 26.5625C502.969 26.625 503.812 26.6875 504.562 26.75C505.375 26.8125 506.156 26.8438 506.906 26.8438C507.594 26.8438 508.469 26.8125 509.531 26.75C510.406 26.6875 511.531 26.625 512.906 26.5625C514.344 26.4375 516.031 26.2812 517.969 26.0938C517.844 26.3438 517.594 27.125 517.219 28.4375C516.844 29.6875 516.469 31.25 516.094 33.125C515.719 34.9375 515.375 36.9688 515.062 39.2188C514.812 41.4062 514.688 43.5938 514.688 45.7812C514.75 47.9062 515.031 49.9375 515.531 51.875C516.031 53.75 516.844 55.2812 517.969 56.4688C520.344 58.9062 522.438 60.375 524.25 60.875C526.125 61.375 527.75 61.3125 529.125 60.6875C530.5 60.0625 531.625 59.125 532.5 57.875C533.375 56.625 534 55.4688 534.375 54.4062C535.312 51.5312 535.875 48.5 536.062 45.3125C536.188 42.5625 535.969 39.5 535.406 36.125C534.844 32.75 533.5 29.3125 531.375 25.8125C533 25.9375 534.406 26.0312 535.594 26.0938C536.781 26.1562 537.812 26.2188 538.688 26.2812C539.688 26.3438 540.562 26.4062 541.312 26.4688C542 26.5312 542.812 26.5312 543.75 26.4688C544.562 26.4688 545.531 26.4375 546.656 26.375C547.844 26.25 549.156 26.125 550.594 26C550.844 32.125 551.062 37.5938 551.25 42.4062C551.438 47.1562 551.562 51.375 551.625 55.0625C551.75 58.6875 551.812 61.8438 551.812 64.5312C551.812 67.1562 551.812 69.375 551.812 71.1875C551.75 75.5 551.562 78.3438 551.25 79.7188C550.75 81.6562 549.844 83.5938 548.531 85.5312C547.281 87.4688 545.688 89.1875 543.75 90.6875C541.812 92.25 539.562 93.4375 537 94.25C534.5 95.125 531.75 95.4375 528.75 95.1875C525.812 94.9375 523.469 94.5312 521.719 93.9688C520.031 93.4688 518.688 92.875 517.688 92.1875C516.75 91.5 516.062 90.7812 515.625 90.0312C515.25 89.2812 514.969 88.5 514.781 87.6875C514.594 86.9375 514.406 86.2188 514.219 85.5312C514.031 84.8438 513.656 84.25 513.094 83.75C512.406 83.1875 511.688 82.625 510.938 82.0625C510.25 81.5625 509.5 81.0625 508.688 80.5625C507.938 80.0625 507.188 79.6562 506.438 79.3438L526.406 78.2188C525.844 78.9688 525.438 79.6562 525.188 80.2812C524.938 80.9062 524.781 81.4375 524.719 81.875C524.656 82.4375 524.688 82.9062 524.812 83.2812C525.062 84.0312 525.5 84.8438 526.125 85.7188C526.812 86.6562 527.688 87.375 528.75 87.875C529.812 88.4375 531.062 88.625 532.5 88.4375C534 88.25 535.688 87.4688 537.562 86.0938C539.125 84.9062 540.438 83 541.5 80.375C542.375 78.125 543.062 74.9688 543.562 70.9062C544.062 66.8438 543.969 61.5 543.281 54.875C542.156 58.75 540.625 61.7188 538.688 63.7812C536.75 65.8438 534.812 67.3438 532.875 68.2812C530.625 69.4062 528.281 70 525.844 70.0625C522.594 69.9375 519.812 69.5312 517.5 68.8438C515.188 68.0938 513.281 67.0938 511.781 65.8438C510.281 64.5938 509.094 63.125 508.219 61.4375C507.406 59.6875 506.812 57.75 506.438 55.625C506.062 53.5 505.875 51.375 505.875 49.25C505.875 47.0625 505.875 45.0312 505.875 43.1562C505.938 41.2812 505.969 39.5938 505.969 38.0938C505.969 36.5312 505.812 35.2812 505.5 34.3438C505.125 33.4062 504.625 32.4688 504 31.5312C503.5 30.7188 502.812 29.8438 501.938 28.9062C501 27.9062 499.906 26.9688 498.656 26.0938ZM1.03125 123.156C3.21875 123.469 5.125 123.719 6.75 123.906C8.375 124.094 9.71875 124.25 10.7812 124.375C12.0312 124.5 13.0938 124.594 13.9688 124.656C14.9688 124.781 16.1875 124.719 17.625 124.469C19.125 124.219 20.7188 123.969 22.4062 123.719C24.0938 123.406 25.8438 123.156 27.6562 122.969C29.4688 122.781 31.2188 122.781 32.9062 122.969C34.0312 123.094 35.4688 123.344 37.2188 123.719C38.9688 124.094 40.8125 124.688 42.75 125.5C44.75 126.312 46.75 127.375 48.75 128.688C50.75 130 52.5625 131.656 54.1875 133.656C55.8125 135.656 57.1562 138.031 58.2188 140.781C59.2812 143.531 59.875 146.75 60 150.438C60.1875 155.938 59.6875 160.938 58.5 165.438C57.3125 169.938 55.4688 173.781 52.9688 176.969C50.5312 180.156 47.4375 182.656 43.6875 184.469C39.9375 186.281 35.5625 187.281 30.5625 187.469C26.75 187.781 23 188.062 19.3125 188.312C17.75 188.438 16.0938 188.531 14.3438 188.594C12.6562 188.656 10.9688 188.719 9.28125 188.781C7.59375 188.781 5.96875 188.75 4.40625 188.688C2.84375 188.625 1.40625 188.531 0.09375 188.406C1.53125 187.719 2.6875 187.031 3.5625 186.344C4.5 185.656 5.21875 185.062 5.71875 184.562C6.28125 183.938 6.6875 183.375 6.9375 182.875C7.0625 182.188 7.25 180.844 7.5 178.844C7.6875 177.156 7.9375 174.75 8.25 171.625C8.5625 168.5 8.9375 164.25 9.375 158.875L9.9375 152.219C10.25 148.094 10.375 144.719 10.3125 142.094C10.3125 139.469 10.25 137.406 10.125 135.906C9.9375 134.156 9.6875 132.875 9.375 132.062C9.125 131.375 8.65625 130.562 7.96875 129.625C7.34375 128.875 6.46875 127.969 5.34375 126.906C4.28125 125.781 2.84375 124.531 1.03125 123.156ZM20.8125 157.656C20.9375 163.219 21.2188 167.5 21.6562 170.5C22.1562 173.438 22.6875 175.625 23.25 177.062C23.9375 178.688 24.6875 179.656 25.5 179.969C26.6875 179.969 28.0312 179.469 29.5312 178.469C31.0312 177.406 32.5 175.812 33.9375 173.688C35.4375 171.562 36.7812 168.906 37.9688 165.719C39.2188 162.531 40.125 158.812 40.6875 154.562C41.25 150.312 41.0938 146.562 40.2188 143.312C39.3438 140.062 38.1875 137.344 36.75 135.156C35.3125 132.906 33.8438 131.219 32.3438 130.094C30.8438 128.906 29.7188 128.312 28.9688 128.312C28.0938 128.312 27.3125 128.562 26.625 129.062C25.9375 129.5 24.9688 130.531 23.7188 132.156C23.0938 133.031 22.5312 134.281 22.0312 135.906C21.5938 137.344 21.2188 139.25 20.9062 141.625C20.5938 144 20.5 147.062 20.625 150.812L20.8125 157.656ZM88.6875 174.906C90.4375 174.906 92.0625 174.719 93.5625 174.344C94.8125 174.031 96 173.531 97.125 172.844C98.3125 172.094 99.0938 171 99.4688 169.562C100.719 169.812 101.781 170.031 102.656 170.219C103.531 170.344 104.281 170.469 104.906 170.594C105.594 170.781 106.188 170.906 106.688 170.969C107.188 171.094 107.781 171.219 108.469 171.344C109.094 171.469 109.844 171.625 110.719 171.812C111.656 171.938 112.75 172.125 114 172.375C113.062 172.25 112.094 172.344 111.094 172.656C110.156 172.969 109.25 173.312 108.375 173.688C107.375 174.125 106.438 174.656 105.562 175.281C105 175.656 104.344 176.219 103.594 176.969C102.906 177.719 101.906 178.438 100.594 179.125C99.2812 179.812 97.5312 180.406 95.3438 180.906C93.2188 181.344 90.4688 181.5 87.0938 181.375C83.0312 181.25 79.625 180.531 76.875 179.219C74.125 177.844 71.9062 176.188 70.2188 174.25C68.5312 172.25 67.3125 170.094 66.5625 167.781C65.8125 165.469 65.4062 163.312 65.3438 161.312C65.2812 159.312 65.875 157.219 67.125 155.031C68.375 152.844 70.125 150.844 72.375 149.031C74.6875 147.219 77.4688 145.75 80.7188 144.625C83.9688 143.438 87.5312 142.844 91.4062 142.844C93.6562 142.844 95.7188 143.125 97.5938 143.688C99.5312 144.188 101.281 144.875 102.844 145.75C104.469 146.625 105.875 147.625 107.062 148.75C108.25 149.812 109.25 150.906 110.062 152.031C110.875 153.219 111.562 154.469 112.125 155.781C112.625 156.906 113.031 158.188 113.344 159.625C113.656 161.062 113.75 162.531 113.625 164.031C108.875 164.156 105.031 164.25 102.094 164.312C99.2188 164.375 96.9688 164.406 95.3438 164.406H91.125H87.9375C86.8125 164.406 85.3438 164.438 83.5312 164.5C81.7188 164.562 79.5 164.656 76.875 164.781C77.1875 167.281 77.9688 169.219 79.2188 170.594C80.5312 171.906 81.9062 172.906 83.3438 173.594C84.9688 174.344 86.75 174.781 88.6875 174.906ZM80.25 158.031C82.25 158.156 83.9062 158.25 85.2188 158.312C86.5938 158.375 87.7188 158.438 88.5938 158.5C89.5312 158.562 90.2812 158.594 90.8438 158.594H93.1875C94.75 158.594 97.6562 158.5 101.906 158.312C101.719 155.562 101.125 153.469 100.125 152.031C99.1875 150.594 98.1875 149.531 97.125 148.844C95.875 148.094 94.5 147.656 93 147.531C88.9375 147.594 85.9062 148.438 83.9062 150.062C81.9688 151.688 80.75 154.344 80.25 158.031ZM124.406 152.031C124.719 151.656 124.906 150.969 124.969 149.969C125.094 148.906 125.344 147.719 125.719 146.406C126.156 145.094 126.875 143.719 127.875 142.281C128.875 140.844 130.5 139.5 132.75 138.25C134.938 137 137.062 136.25 139.125 136C141.188 135.75 143.156 135.844 145.031 136.281C146.906 136.719 148.656 137.406 150.281 138.344C151.969 139.281 153.5 140.312 154.875 141.438C155.812 142.188 156.562 143.281 157.125 144.719C157.688 146.094 158.125 147.656 158.438 149.406C158.75 151.156 158.969 153 159.094 154.938C159.281 156.812 159.406 158.656 159.469 160.469C159.531 162.219 159.562 163.844 159.562 165.344C159.625 166.781 159.75 167.969 159.938 168.906C160.188 170.281 160.625 171.469 161.25 172.469C161.875 173.406 162.562 174.219 163.312 174.906C164.062 175.531 164.812 176.031 165.562 176.406C166.312 176.781 166.969 177.062 167.531 177.25C167.906 177.438 168.25 177.562 168.562 177.625C169.188 177.875 169.625 177.875 169.875 177.625C169.5 178.5 169.156 179.25 168.844 179.875C168.531 180.5 168.281 181.031 168.094 181.469C167.844 181.969 167.625 182.375 167.438 182.688C167.25 183.062 167.031 183.406 166.781 183.719C166.594 184.031 166.344 184.375 166.031 184.75C165.719 185.125 165.406 185.531 165.094 185.969C164.281 185.656 163.5 185.281 162.75 184.844C162.062 184.406 161.438 184 160.875 183.625C160.188 183.188 159.562 182.75 159 182.312C158.438 181.875 157.906 181.375 157.406 180.812C156.969 180.312 156.5 179.781 156 179.219C155.562 178.656 155.188 178.031 154.875 177.344C154.5 178.156 153.594 179.312 152.156 180.812C150.781 182.312 148.969 183.688 146.719 184.938C144.469 186.125 141.844 186.969 138.844 187.469C135.906 187.969 132.656 187.625 129.094 186.438C127.531 185.938 126.062 185.219 124.688 184.281C123.312 183.281 122.125 182.094 121.125 180.719C120.188 179.344 119.5 177.781 119.062 176.031C118.688 174.219 118.719 172.219 119.156 170.031C119.594 167.844 120.375 166 121.5 164.5C122.625 163 123.969 161.781 125.531 160.844C127.094 159.906 128.844 159.188 130.781 158.688C132.719 158.188 134.719 157.844 136.781 157.656C138.406 157.594 140.031 157.688 141.656 157.938C143.031 158.188 144.469 158.656 145.969 159.344C147.469 159.969 148.75 160.938 149.812 162.25C149.75 158.938 149.625 156.312 149.438 154.375C149.312 152.375 149.188 150.844 149.062 149.781C148.812 148.531 148.594 147.656 148.406 147.156C148.094 146.719 147.75 146.219 147.375 145.656C147.062 145.094 146.656 144.594 146.156 144.156C145.656 143.656 145.031 143.25 144.281 142.938C143.531 142.625 142.656 142.5 141.656 142.562C140.594 142.625 139.75 142.906 139.125 143.406C138.5 143.906 138 144.5 137.625 145.188C137.312 145.812 137.125 146.5 137.062 147.25C137 148 137.031 148.656 137.156 149.219C137.281 149.594 137.469 150 137.719 150.438C137.969 150.812 138.312 151.219 138.75 151.656C139.188 152.094 139.781 152.469 140.531 152.781C139.094 152.969 137.812 153.125 136.688 153.25C135.562 153.312 134.594 153.406 133.781 153.531C132.844 153.656 132.031 153.75 131.344 153.812C130.656 153.875 129.844 154 128.906 154.188C128.094 154.312 127.094 154.469 125.906 154.656C124.719 154.844 123.344 155.094 121.781 155.406C122.156 154.969 122.5 154.562 122.812 154.188C123.125 153.75 123.406 153.375 123.656 153.062C123.906 152.688 124.156 152.344 124.406 152.031ZM138.469 163.188C137.344 163.25 136.219 163.531 135.094 164.031C133.969 164.469 132.969 165.125 132.094 166C131.219 166.812 130.469 167.781 129.844 168.906C129.281 169.969 129 171.156 129 172.469C129 173.781 129.312 174.938 129.938 175.938C130.625 176.875 131.5 177.656 132.562 178.281C133.688 178.906 134.875 179.281 136.125 179.406C137.438 179.531 138.719 179.406 139.969 179.031C141.156 178.594 142.281 177.906 143.344 176.969C144.406 175.969 145.312 174.906 146.062 173.781C146.812 172.594 147.344 171.438 147.656 170.312C147.969 169.125 148 168.156 147.75 167.406C147.25 165.781 146.125 164.656 144.375 164.031C142.625 163.344 140.656 163.062 138.469 163.188ZM171.094 192.625C171.719 191.688 172.219 190.812 172.594 190C172.969 189.188 173.281 188.5 173.531 187.938C173.781 187.25 173.969 186.625 174.094 186.062C174.156 185.688 174.188 184.594 174.188 182.781C174.188 180.969 174.125 178.688 174 175.938C173.938 173.188 173.844 170.094 173.719 166.656C173.656 163.219 173.531 159.719 173.344 156.156C173.219 152.594 173.062 149.125 172.875 145.75C172.75 142.375 172.625 139.344 172.5 136.656C172.375 133.906 172.25 131.656 172.125 129.906C172 128.156 171.906 127.156 171.844 126.906C171.719 126.531 171.5 126.156 171.188 125.781C170.562 125.031 169.5 124.312 168 123.625C171.188 122.812 173.625 122.156 175.312 121.656C176.312 121.406 177.188 121.156 177.938 120.906C178.625 120.656 179.312 120.406 180 120.156C180.562 119.906 181.188 119.625 181.875 119.312C182.562 118.938 183.188 118.531 183.75 118.094C183.438 119.906 183.188 121.656 183 123.344C182.812 125.031 182.656 126.594 182.531 128.031C182.406 129.656 182.344 131.219 182.344 132.719C182.031 135.781 181.844 139.125 181.781 142.75C181.781 146.312 181.812 149.938 181.875 153.625C181.938 157.312 182.062 160.906 182.25 164.406C182.438 167.906 182.625 171.094 182.812 173.969C183.062 176.781 183.281 179.188 183.469 181.188C183.719 183.125 183.906 184.375 184.031 184.938C184.281 185.875 184.531 186.781 184.781 187.656C185.031 188.406 185.312 189.188 185.625 190C185.938 190.875 186.312 191.562 186.75 192.062H177.656C176.844 192.062 176.062 192.094 175.312 192.156C174.625 192.219 173.906 192.281 173.156 192.344C172.406 192.406 171.719 192.5 171.094 192.625ZM231.469 136.469C230.906 137.844 230.406 139.094 229.969 140.219C229.594 141.344 229.25 142.344 228.938 143.219C228.625 144.219 228.344 145.094 228.094 145.844C227.844 146.719 227.562 147.719 227.25 148.844C226.938 149.844 226.531 151.094 226.031 152.594C225.594 154.031 225.062 155.75 224.438 157.75C223.938 154.75 223.031 152.375 221.719 150.625C220.406 148.812 219.062 147.406 217.688 146.406C216.062 145.281 214.312 144.469 212.438 143.969C209.062 143.406 206.625 143.469 205.125 144.156C203.625 144.844 202.625 145.719 202.125 146.781C201.875 147.219 201.594 147.781 201.281 148.469C201.031 149.094 200.812 149.75 200.625 150.438C200.5 151.125 200.469 151.812 200.531 152.5C200.594 153.188 200.875 153.75 201.375 154.188C201.688 154.5 202.5 154.938 203.812 155.5C205.125 156 206.688 156.594 208.5 157.281C210.375 157.906 212.344 158.594 214.406 159.344C216.531 160.094 218.531 160.844 220.406 161.594C222.281 162.344 223.906 163.094 225.281 163.844C226.656 164.594 227.562 165.281 228 165.906C228.375 166.531 228.781 167.375 229.219 168.438C229.719 169.438 230.062 170.562 230.25 171.812C230.5 173 230.562 174.25 230.438 175.562C230.375 176.812 230.031 178.062 229.406 179.312C228.781 180.562 227.781 181.719 226.406 182.781C225.094 183.844 223.312 184.719 221.062 185.406C218.438 186.219 215.906 186.438 213.469 186.062C211.031 185.688 208.781 185.125 206.719 184.375C204.719 183.625 202.969 182.906 201.469 182.219C199.969 181.469 198.906 181.156 198.281 181.281C197.594 181.406 196.812 181.75 195.938 182.312C195.062 182.875 194.219 183.469 193.406 184.094C192.656 184.656 192 185.188 191.438 185.688C190.875 186.125 190.594 186.281 190.594 186.156C190.594 186.031 190.688 185.656 190.875 185.031C191.125 184.406 191.375 183.656 191.625 182.781C191.938 181.844 192.219 180.844 192.469 179.781C192.781 178.656 193 177.594 193.125 176.594C193.25 175.781 193.406 174.781 193.594 173.594C193.719 172.531 193.875 171.25 194.062 169.75C194.312 168.188 194.594 166.312 194.906 164.125C195.219 165.75 195.656 167.156 196.219 168.344C196.844 169.531 197.438 170.562 198 171.438C198.688 172.438 199.344 173.281 199.969 173.969C200.906 174.844 202 175.656 203.25 176.406C204.562 177.156 205.875 177.812 207.188 178.375C208.5 178.875 209.75 179.188 210.938 179.312C212.125 179.438 213.125 179.312 213.938 178.938C214.75 178.562 215.438 177.875 216 176.875C216.625 175.875 217.062 174.781 217.312 173.594C217.562 172.406 217.656 171.281 217.594 170.219C217.531 169.094 217.25 168.188 216.75 167.5C216.375 167.062 215.5 166.5 214.125 165.812C212.812 165.125 211.219 164.375 209.344 163.562C207.531 162.75 205.594 161.906 203.531 161.031C201.531 160.156 199.625 159.281 197.812 158.406C196.062 157.469 194.594 156.594 193.406 155.781C192.281 154.906 191.656 154.125 191.531 153.438C191.406 152.438 191.312 151.344 191.25 150.156C191.188 148.906 191.25 147.688 191.438 146.5C191.688 145.25 192.125 144.062 192.75 142.938C193.438 141.812 194.438 140.875 195.75 140.125C196.625 139.625 197.781 139.25 199.219 139C200.656 138.75 202.25 138.625 204 138.625C205.75 138.562 207.562 138.625 209.438 138.812C211.312 138.938 213.094 139.125 214.781 139.375C216.531 139.562 218.094 139.812 219.469 140.125C220.906 140.438 222 140.719 222.75 140.969C223.625 141.281 224.562 141.312 225.562 141.062C226.438 140.875 227.375 140.469 228.375 139.844C229.375 139.219 230.406 138.094 231.469 136.469Z" fill="black"/>
</svg>
